<svg version="1" xmlns="http://www.w3.org/2000/svg" width="853.333" height="853.333" viewBox="0 0 640.000000 640.000000"><path d="M36.5 104.4c-5.6 2.7-31 27.7-33.9 33.4C-.1 143-.5 150 1.5 156.1c1.7 5.1 5.7 9.4 80.8 84.6l79.2 79.3-79.2 79.2C7.2 474.5 3.2 478.8 1.5 483.9c-2 6.1-1.6 13.1 1.1 18.3.9 1.8 7.8 9.5 15.3 17.2C32.7 534.5 38 538 46 538c11 0 4.2 6.1 113.3-102.8 60-60 101.7-102.3 103-104.7 3-5.5 3-15.5 0-21-1.3-2.4-43-44.7-103-104.7C50.2 95.9 57 102 46 102c-2.7 0-6.5 1-9.5 2.4zM306 464.9c-6.9 2.1-12.1 6.5-15.6 13.1-1.7 3.1-1.9 6-1.9 26s.2 22.9 1.9 26c2.6 4.9 6.4 8.8 11.1 11.3l4 2.2h317l4-2.2c5.2-2.8 8.9-6.8 11.4-12.3 1.9-4.1 2.1-6.5 2.1-25s-.2-20.9-2.1-25c-2.5-5.5-6.2-9.5-11.4-12.3l-4-2.2-157-.2c-86.3-.1-158.1.2-159.5.6z"/></svg>